<svg width="45" height="45" viewBox="0 0 45 45" fill="none" xmlns="http://www.w3.org/2000/svg">
<circle cx="22.5" cy="22.5" r="21.5" stroke="#FF5454" stroke-width="2"/>
<path d="M23.9727 26.1836H22.0156L21.8633 13.9375H24.1367L23.9727 26.1836ZM21.7812 29.9102C21.7812 29.5586 21.8867 29.2656 22.0977 29.0312C22.3164 28.7891 22.6367 28.668 23.0586 28.668C23.4805 28.668 23.8008 28.7891 24.0195 29.0312C24.2383 29.2656 24.3477 29.5586 24.3477 29.9102C24.3477 30.2617 24.2383 30.5547 24.0195 30.7891C23.8008 31.0156 23.4805 31.1289 23.0586 31.1289C22.6367 31.1289 22.3164 31.0156 22.0977 30.7891C21.8867 30.5547 21.7812 30.2617 21.7812 29.9102Z" fill="#FF5454"/>
</svg>
